<svg width="34" height="34" viewBox="0 0 34 34" fill="none" xmlns="http://www.w3.org/2000/svg">
    <path d="M30.7494 6.84998H28.0881V11.108H27.0236V12.1726H28.0881V29.2048H30.7494C31.6297 29.2048 32.3461 29.9212 32.3461 30.8016C32.3461 31.6819 31.6297 32.3984 30.7494 32.3984H1.47516V12.1726H5.96795C5.82105 12.5196 5.69118 12.8741 5.58632 13.2371H3.60419V18.5597H5.58632C5.78326 19.2404 6.05524 19.8962 6.39855 20.5178L4.99605 21.9198L8.75964 25.6839L10.1616 24.2814C10.7833 24.6247 11.439 24.8967 12.1203 25.0931V27.0758H17.4429V25.0937C18.1237 24.8967 18.7799 24.6253 19.4016 24.282L20.8036 25.6845L24.5672 21.9203L23.1647 20.5184C23.5085 19.8967 23.78 19.2409 23.9769 18.5602H25.959V13.2371H23.9769C23.872 12.8741 23.7422 12.5196 23.5953 12.1726H25.959V11.108H23.3355L24.5672 9.87693L20.8036 6.1128L19.4016 7.5153C18.7805 7.172 18.1247 6.90001 17.4429 6.70361V4.72095H12.1203V6.70308C11.439 6.90001 10.7828 7.17146 10.1616 7.51477L8.75964 6.11227L4.99605 9.8764L6.22769 11.108H0.410645V33.4629H30.7494C32.2168 33.4629 33.4106 32.269 33.4106 30.8016V9.51127C33.4106 8.04383 32.2168 6.84998 30.7494 6.84998ZM6.41452 14.3016L6.51298 13.8944C6.72003 13.0391 7.05802 12.2231 7.51895 11.4694L7.73718 11.1118L6.50181 9.8764L8.76018 7.61856L9.99502 8.85393L10.3527 8.63517C11.1058 8.17477 11.9213 7.83679 12.7777 7.62974L13.1848 7.53127V5.78546H16.3784V7.53127L16.7861 7.62974C17.642 7.83679 18.4579 8.17477 19.2111 8.63517L19.5687 8.85393L20.8036 7.61856L23.062 9.87693L21.8266 11.1123L22.0448 11.47C22.5052 12.2237 22.8437 13.0391 23.0508 13.8949L23.1487 14.3016H24.8945V17.4951H23.1487L23.0502 17.9023C22.8432 18.7577 22.5052 19.5736 22.0443 20.3273L21.826 20.685L23.0614 21.9203L20.803 24.1787L19.5682 22.9433L19.2105 23.1616C18.4569 23.622 17.6409 23.9605 16.7856 24.167L16.3784 24.2655V26.0113H13.1848V24.2655L12.7771 24.167C11.9223 23.9605 11.1058 23.622 10.3522 23.1616L9.99448 22.9433L8.75964 24.1787L6.50127 21.9203L7.73664 20.685L7.51842 20.3273C7.05802 19.5736 6.7195 18.7582 6.51245 17.9023L6.41452 17.4951H4.66871V14.3016H6.41452ZM32.3461 28.6736C31.9012 28.3394 31.3481 28.1403 30.7494 28.1403H29.1526V7.9145H30.7494C31.6297 7.9145 32.3461 8.63092 32.3461 9.51127V28.6736Z" fill="#E5E6EE" stroke="white" stroke-width="0.4"/>
    <path d="M14.7816 21.221C17.7164 21.221 20.1041 18.8333 20.1041 15.8984C20.1041 12.9635 17.7164 10.5758 14.7816 10.5758C11.8467 10.5758 9.45898 12.9635 9.45898 15.8984C9.45898 18.8333 11.8467 21.221 14.7816 21.221ZM14.7816 11.6403C17.1294 11.6403 19.0396 13.5506 19.0396 15.8984C19.0396 18.2462 17.1294 20.1565 14.7816 20.1565C12.4338 20.1565 10.5235 18.2462 10.5235 15.8984C10.5235 13.5506 12.4338 11.6403 14.7816 11.6403Z" fill="#E5E6EE" stroke="white" stroke-width="0.4"/>
    <path d="M4.13648 7.38225C5.31064 7.38225 6.26551 6.42737 6.26551 5.25321C6.26551 4.97112 6.20749 4.70339 6.10796 4.45696C8.5952 2.57063 11.6429 1.52741 14.7816 1.52741V0.462891C11.4124 0.462891 8.14012 1.58223 5.46925 3.60641C5.10306 3.30941 4.64319 3.12418 4.13648 3.12418C2.96232 3.12418 2.00745 4.07905 2.00745 5.25321C2.00745 6.42737 2.96232 7.38225 4.13648 7.38225ZM4.13648 4.1887C4.72356 4.1887 5.20099 4.66613 5.20099 5.25321C5.20099 5.84029 4.72356 6.31773 4.13648 6.31773C3.5494 6.31773 3.07196 5.84029 3.07196 5.25321C3.07196 4.66613 3.5494 4.1887 4.13648 4.1887Z" fill="#E5E6EE" stroke="white" stroke-width="0.4"/>
    <path d="M22.7655 27.0758C22.7655 27.3143 22.8139 27.5399 22.8868 27.7544C20.4949 29.3959 17.7117 30.2694 14.7816 30.2694V31.3339C17.9214 31.3339 20.9036 30.4003 23.4681 28.6454C23.8465 28.9893 24.3442 29.2048 24.8945 29.2048C26.0687 29.2048 27.0236 28.25 27.0236 27.0758C27.0236 25.9016 26.0687 24.9468 24.8945 24.9468C23.7204 24.9468 22.7655 25.9016 22.7655 27.0758ZM25.959 27.0758C25.959 27.6629 25.4816 28.1403 24.8945 28.1403C24.3074 28.1403 23.83 27.6629 23.83 27.0758C23.83 26.4887 24.3074 26.0113 24.8945 26.0113C25.4816 26.0113 25.959 26.4887 25.959 27.0758Z" fill="#E5E6EE" stroke="white" stroke-width="0.4"/>
</svg>
