<svg width="26" height="27" viewBox="0 0 26 27" fill="none" xmlns="http://www.w3.org/2000/svg">
    <g clip-path="url(#clip0_174_214)">
        <mask id="mask0_174_214" style="mask-type:luminance" maskUnits="userSpaceOnUse" x="0" y="1" width="26" height="26">
            <path d="M25.4106 1.1748H0.410645V26.1748H25.4106V1.1748Z" fill="white"/>
        </mask>
        <g mask="url(#mask0_174_214)">
            <path d="M22.9044 11.4819H25.4107C25.2227 7.46556 23.2427 3.93172 20.2415 1.64478L18.4558 3.43049C20.9996 5.2538 22.7102 8.16104 22.9044 11.4819Z" fill="#F88379"/>
            <path d="M7.37181 3.43677L5.57981 1.64478C2.57858 3.93172 0.598615 7.46556 0.410645 11.4819H2.91693C3.11112 8.16104 4.82165 5.2538 7.37181 3.43677Z" fill="#F88379"/>
            <path d="M20.4293 12.1084C20.4293 8.25501 18.3805 5.04073 14.7902 4.18858V3.33649C14.7902 2.29637 13.9507 1.45679 12.9105 1.45679C11.8704 1.45679 11.0308 2.29637 11.0308 3.33649V4.18864C7.44066 5.04079 5.39179 8.25507 5.39179 12.1085V18.3741L2.8855 20.8804V22.1335H22.9356V20.8804L20.4293 18.3741V12.1084Z" fill="#E5E6EE"/>
            <path d="M12.9105 25.8929C13.0859 25.8929 13.2551 25.8741 13.418 25.8428C14.2326 25.6736 14.903 25.1097 15.2225 24.3641C15.3478 24.0634 15.4168 23.7375 15.4168 23.3867H10.4043C10.4042 24.7714 11.5258 25.8929 12.9105 25.8929Z" fill="#E5E6EE"/>
        </g>
    </g>
    <defs>
        <clipPath id="clip0_174_214">
            <rect width="25" height="26" fill="white" transform="translate(0.410645 0.962891)"/>
        </clipPath>
    </defs>
</svg>
