<svg width="16" height="16" viewBox="0 0 16 16" fill="none" xmlns="http://www.w3.org/2000/svg">
    <g clip-path="url(#clip0_1_149)">
        <path d="M7.00318 4.61743H10.7927C10.9235 4.61743 11.0295 4.72349 11.0295 4.85427C11.0295 4.98508 10.9235 5.0911 10.7927 5.0911H7.00321C6.8724 5.0911 6.76638 4.98505 6.76638 4.85427C6.76635 4.72346 6.87237 4.61743 7.00318 4.61743Z" fill="#30333F"/>
        <path d="M4.4769 4.61743H5.74006C5.87087 4.61743 5.9769 4.72349 5.9769 4.85427C5.9769 4.98508 5.87084 5.0911 5.74006 5.0911H4.4769C4.34609 5.0911 4.24006 4.98505 4.24006 4.85427C4.24003 4.72346 4.34609 4.61743 4.4769 4.61743Z" fill="#30333F"/>
        <path d="M8.89793 5.88055H10.7927C10.9235 5.88055 11.0295 5.98661 11.0295 6.11739C11.0295 6.2482 10.9235 6.35423 10.7927 6.35423H8.89793C8.76712 6.35423 8.66109 6.24817 8.66109 6.11739C8.66109 5.98661 8.76712 5.88055 8.89793 5.88055Z" fill="#30333F"/>
        <path d="M7.00319 5.88055H7.63478C7.76559 5.88055 7.87161 5.98661 7.87161 6.11739C7.87161 6.2482 7.76556 6.35423 7.63478 6.35423H7.00319C6.87238 6.35423 6.76636 6.24817 6.76636 6.11739C6.76636 5.98661 6.87238 5.88055 7.00319 5.88055Z" fill="#30333F"/>
        <path d="M4.4769 5.88055H5.74006C5.87087 5.88055 5.9769 5.98661 5.9769 6.11739C5.9769 6.2482 5.87084 6.35423 5.74006 6.35423H4.4769C4.34609 6.35423 4.24006 6.24817 4.24006 6.11739C4.24003 5.98661 4.34609 5.88055 4.4769 5.88055Z" fill="#30333F"/>
        <path d="M4.4769 7.14374H7.63478C7.76559 7.14374 7.87161 7.24979 7.87161 7.38057C7.87161 7.51138 7.76556 7.61741 7.63478 7.61741H4.47687C4.34606 7.61741 4.24003 7.51135 4.24003 7.38057C4.24003 7.24979 4.34609 7.14374 4.4769 7.14374Z" fill="#30333F"/>
        <path d="M8.89793 7.14374H10.7927C10.9235 7.14374 11.0295 7.24979 11.0295 7.38057C11.0295 7.51138 10.9235 7.61741 10.7927 7.61741H8.89793C8.76712 7.61741 8.66109 7.51141 8.66109 7.38057C8.66109 7.24979 8.76712 7.14374 8.89793 7.14374Z" fill="#30333F"/>
        <path d="M0.233174 6.19267L0.233115 6.19258L2.3453 4.66994V4.17828C2.3453 3.34085 3.01822 2.65958 3.8453 2.65958H4.72096L6.56373 1.43108C7.21435 0.997339 8.05518 0.997339 8.70577 1.43108L10.5486 2.65958H11.4243C12.2513 2.65958 12.9243 3.34088 12.9243 4.17828V4.66994L15.0364 6.19258L15.0364 6.19267C15.0975 6.23676 15.1348 6.3079 15.1348 6.38471V13.004C15.1348 13.8299 14.4618 14.5017 13.6348 14.5017H1.63477C0.807686 14.5017 0.134766 13.8299 0.134766 13.004V6.38471C0.134766 6.3079 0.172002 6.23676 0.233174 6.19267ZM2.3453 5.25385L0.779971 6.38231L2.3453 7.48299V5.25385ZM12.4506 4.17828C12.4506 3.61182 11.9806 3.13326 11.4242 3.13326H10.4788C10.4782 3.13326 10.4776 3.13326 10.4771 3.13326H7.46338C7.33257 3.13326 7.22654 3.0272 7.22654 2.89642C7.22654 2.76561 7.3326 2.65958 7.46338 2.65958H9.69463L8.44304 1.82518C7.95205 1.49788 7.31751 1.49785 6.82652 1.82518L5.57493 2.65958H6.41915C6.54996 2.65958 6.65599 2.76564 6.65599 2.89642C6.65599 3.02723 6.54993 3.13326 6.41915 3.13326H4.79335C4.7932 3.13326 4.79306 3.13329 4.79291 3.13329C4.79276 3.13329 4.79256 3.13326 4.79241 3.13326H3.84533C3.28901 3.13326 2.819 3.61179 2.819 4.17828V7.81607L5.82653 9.93083L6.98443 9.33502C7.38633 9.09769 7.88326 9.09769 8.28513 9.33502L9.44303 9.93083L12.4506 7.81607V4.17828ZM12.9242 5.25385V7.48299L14.4896 6.38231L12.9242 5.25385ZM14.6611 6.84078L9.9186 10.1755L14.6611 12.6158V6.84078ZM1.63477 14.028H13.6348C14.1532 14.028 14.5829 13.6423 14.6513 13.1435L8.06194 9.75288C8.05743 9.75054 8.05298 9.74808 8.04861 9.7455C7.79332 9.5926 7.47615 9.5926 7.22086 9.7455C7.21649 9.74811 7.21204 9.7506 7.20753 9.75288L0.618164 13.1435C0.686631 13.6423 1.1163 14.028 1.63477 14.028ZM0.608438 12.6158L5.35093 10.1756L0.608438 6.84078V12.6158Z" fill="#30333F"/>
    </g>
    <defs>
        <clipPath id="clip0_1_149">
            <rect width="15" height="15" fill="white" transform="matrix(-1 0 0 1 15.1348 0.303711)"/>
        </clipPath>
    </defs>
</svg>
