<svg width="3" height="15" viewBox="0 0 3 15" fill="none" xmlns="http://www.w3.org/2000/svg">
    <path d="M1.63797 2.79201C0.957969 2.79201 0.437969 2.23201 0.437969 1.59201C0.437969 0.932013 0.977969 0.392014 1.63797 0.392014C2.29797 0.392014 2.83797 0.912013 2.83797 1.59201C2.83797 2.25201 2.29797 2.79201 1.63797 2.79201ZM1.63797 8.91201C0.957969 8.91201 0.437969 8.35201 0.437969 7.71201C0.437969 7.05201 0.977969 6.51201 1.63797 6.51201C2.25797 6.51201 2.83797 7.01201 2.83797 7.71201C2.83797 8.37201 2.29797 8.91201 1.63797 8.91201ZM1.63797 14.952C0.957969 14.952 0.437969 14.392 0.437969 13.752C0.437969 13.132 0.937969 12.552 1.63797 12.552C2.29797 12.552 2.83797 13.092 2.83797 13.752C2.83797 14.432 2.29797 14.952 1.63797 14.952Z" fill="white"/>
</svg>
