<svg width="31" height="18" viewBox="0 0 31 18" fill="none" xmlns="http://www.w3.org/2000/svg">
    <path d="M27.5763 4.67722H26.514C25.9628 2.21402 24.1701 0.422607 22.0414 0.422607H4.78054C2.21486 0.422607 0.134766 3.02361 0.134766 6.23077V11.911C0.134766 15.1181 2.21486 17.7191 4.78054 17.7191H22.0414C24.1779 17.7191 25.9765 15.9269 26.5192 13.4645H27.5763C28.9845 13.4645 30.1341 12.034 30.1341 10.2721V7.84091C30.1361 6.08066 28.9858 4.67722 27.5763 4.67722ZM24.1353 11.8864C24.1353 13.3144 23.2094 14.471 22.067 14.471H4.79957C3.65781 14.471 2.73128 13.3144 2.73128 11.8864V6.19878C2.73128 4.77073 3.65781 3.61336 4.79957 3.61336H22.0663C23.2088 3.61336 24.1346 4.77073 24.1346 6.19878L24.1353 11.8864Z" fill="#F5E130"/>
    <path d="M8.6148 5.18158H5.08585C4.66261 5.18158 4.32074 5.60893 4.32074 6.13799V12.0036C4.32074 12.5326 4.66261 12.9608 5.08585 12.9608H8.6148C9.03803 12.9608 9.3799 12.5326 9.3799 12.0036V6.13799C9.3799 5.60893 9.03803 5.18158 8.6148 5.18158Z" fill="#F5E130"/>
    <path d="M15.1517 5.18158H11.6234C11.2002 5.18158 10.8583 5.60893 10.8583 6.13799V12.0036C10.8583 12.5326 11.2002 12.9608 11.6234 12.9608H15.1517C15.5756 12.9608 15.9182 12.5326 15.9182 12.0036V6.13799C15.9182 5.60893 15.575 5.18158 15.1517 5.18158Z" fill="#F5E130"/>
</svg>
