<svg width="26" height="27" viewBox="0 0 26 27" fill="none" xmlns="http://www.w3.org/2000/svg">
    <g clip-path="url(#clip0_174_223)">
        <mask id="mask0_174_223" style="mask-type:luminance" maskUnits="userSpaceOnUse" x="0" y="1" width="26" height="26">
            <path d="M25.4106 1.1748H0.410645V26.1748H25.4106V1.1748Z" fill="white"/>
        </mask>
        <g mask="url(#mask0_174_223)">
            <path d="M24.8324 16.9623L22.1949 14.8936C22.2449 14.4935 22.2824 14.0873 22.2824 13.6748C22.2824 13.2623 22.2449 12.8561 22.1949 12.4561L24.8386 10.3873C25.0761 10.1998 25.1449 9.86226 24.9886 9.58728L22.4886 5.25603C22.3324 4.98726 22.0074 4.87476 21.7261 4.98726L18.6137 6.24351C17.9699 5.74974 17.2637 5.33103 16.5012 5.01228L16.0324 1.6998C15.9761 1.40607 15.7199 1.1748 15.4074 1.1748H10.4075C10.095 1.1748 9.83871 1.40607 9.78872 1.6998L9.31997 5.01228C8.5575 5.33103 7.8512 5.74353 7.20749 6.24351L4.09499 4.98726C3.81374 4.88103 3.48872 4.98726 3.33251 5.25603L0.832442 9.58728C0.676173 9.85605 0.744962 10.1936 0.982442 10.3873L3.61992 12.4561C3.56994 12.8561 3.53244 13.2623 3.53244 13.6748C3.53244 14.0873 3.56994 14.4935 3.61992 14.8936L0.982442 16.9623C0.744962 17.1498 0.676173 17.4873 0.832442 17.7623L3.33246 22.0936C3.48872 22.3623 3.81369 22.4748 4.09493 22.3623L7.20743 21.1061C7.8512 21.5998 8.55744 22.0186 9.31991 22.3373L9.78866 25.6498C9.83864 25.9435 10.0949 26.1748 10.4074 26.1748H15.4073C15.7198 26.1748 15.9761 25.9435 16.0261 25.6498L16.4948 22.3373C17.2573 22.0186 17.9636 21.6061 18.6073 21.1061L21.7198 22.3623C22.0011 22.4686 22.3261 22.3623 22.4823 22.0936L24.9823 17.7623C25.1386 17.4936 25.0699 17.1561 24.8324 16.9623ZM12.9074 18.0498C10.4886 18.0498 8.53241 16.0936 8.53241 13.6748C8.53241 11.2561 10.4886 9.29982 12.9074 9.29982C15.3261 9.29982 17.2824 11.2561 17.2824 13.6749C17.2824 16.0936 15.3261 18.0498 12.9074 18.0498Z" fill="#E5E6EE"/>
        </g>
    </g>
    <defs>
        <clipPath id="clip0_174_223">
            <rect width="25" height="26" fill="white" transform="translate(0.410645 0.962891)"/>
        </clipPath>
    </defs>
</svg>
