<svg width="16" height="16" viewBox="0 0 16 16" fill="none" xmlns="http://www.w3.org/2000/svg">
    <g clip-path="url(#clip0_1_176)">
        <path d="M9.7038 5.73822C9.50976 5.73822 9.35251 5.89548 9.35251 6.08951V12.7288C9.35251 12.9227 9.50976 13.0801 9.7038 13.0801C9.89783 13.0801 10.0551 12.9227 10.0551 12.7288V6.08951C10.0551 5.89548 9.89783 5.73822 9.7038 5.73822Z" fill="#30333F"/>
        <path d="M5.55859 5.73822C5.36456 5.73822 5.20731 5.89548 5.20731 6.08951V12.7288C5.20731 12.9227 5.36456 13.0801 5.55859 13.0801C5.75263 13.0801 5.90988 12.9227 5.90988 12.7288V6.08951C5.90988 5.89548 5.75263 5.73822 5.55859 5.73822Z" fill="#30333F"/>
        <path d="M2.53751 4.76929V13.4243C2.53751 13.9358 2.72509 14.4162 3.05278 14.7609C3.37895 15.1066 3.83289 15.3028 4.30795 15.3036H10.9544C11.4296 15.3028 11.8836 15.1066 12.2096 14.7609C12.5373 14.4162 12.7249 13.9358 12.7249 13.4243V4.76929C13.3763 4.5964 13.7983 3.9671 13.7112 3.29869C13.6239 2.63042 13.0546 2.13053 12.3806 2.13039H10.582V1.69128C10.5841 1.32202 10.4381 0.967436 10.1767 0.706578C9.91524 0.445857 9.56011 0.300677 9.19085 0.303696H6.07152C5.70226 0.300677 5.34713 0.445857 5.08572 0.706578C4.82431 0.967436 4.67831 1.32202 4.68037 1.69128V2.13039H2.8818C2.20777 2.13053 1.63843 2.63042 1.55116 3.29869C1.46402 3.9671 1.88612 4.5964 2.53751 4.76929ZM10.9544 14.6011H4.30795C3.70733 14.6011 3.24009 14.0851 3.24009 13.4243V4.80017H12.0223V13.4243C12.0223 14.0851 11.555 14.6011 10.9544 14.6011ZM5.38294 1.69128C5.38061 1.50836 5.45251 1.33231 5.58233 1.20318C5.712 1.07406 5.88847 1.00311 6.07152 1.00627H9.19085C9.3739 1.00311 9.55037 1.07406 9.68005 1.20318C9.80986 1.33217 9.88176 1.50836 9.87943 1.69128V2.13039H5.38294V1.69128ZM2.8818 2.83296H12.3806C12.7298 2.83296 13.0129 3.11605 13.0129 3.46528C13.0129 3.81451 12.7298 4.0976 12.3806 4.0976H2.8818C2.53257 4.0976 2.24948 3.81451 2.24948 3.46528C2.24948 3.11605 2.53257 2.83296 2.8818 2.83296Z" fill="#30333F"/>
        <path d="M7.6312 5.73822C7.43716 5.73822 7.27991 5.89548 7.27991 6.08951V12.7288C7.27991 12.9227 7.43716 13.0801 7.6312 13.0801C7.82523 13.0801 7.98248 12.9227 7.98248 12.7288V6.08951C7.98248 5.89548 7.82523 5.73822 7.6312 5.73822Z" fill="#30333F"/>
    </g>
    <defs>
        <clipPath id="clip0_1_176">
            <rect width="15" height="15" fill="white" transform="translate(0.134766 0.303711)"/>
        </clipPath>
    </defs>
</svg>
