<svg width="40" height="40" viewBox="0 0 40 40" fill="none" xmlns="http://www.w3.org/2000/svg">
    <mask id="mask0_174_230" style="mask-type:luminance" maskUnits="userSpaceOnUse" x="0" y="0" width="40" height="40">
        <path d="M39.4106 0.174927H0.410645V39.1749H39.4106V0.174927Z" fill="white"/>
    </mask>
    <g mask="url(#mask0_174_230)">
        <path d="M14.1068 30.7509L8.28853 33.9247C7.9471 34.1108 7.64025 34.3398 7.35474 34.5892C10.747 37.4495 15.126 39.175 19.9105 39.175C24.6597 39.175 29.0107 37.4752 32.3934 34.654C32.0814 34.3905 31.7429 34.1535 31.3677 33.9667L25.1372 30.8517C24.3322 30.4492 23.8237 29.6266 23.8237 28.7267V26.2822C23.9989 26.0828 24.199 25.8267 24.4131 25.5243C25.2623 24.3249 25.9047 23.0054 26.3499 21.6213C27.149 21.3748 27.7377 20.6368 27.7377 19.7596V17.1502C27.7377 16.5763 27.4824 16.0634 27.0857 15.7043V11.9324C27.0857 11.9324 27.8606 6.0625 19.9112 6.0625C11.9618 6.0625 12.7367 11.9324 12.7367 11.9324V15.7043C12.3393 16.0634 12.0847 16.5763 12.0847 17.1502V19.7596C12.0847 20.4468 12.446 21.0517 12.9869 21.4012C13.6388 24.2394 15.346 26.2822 15.346 26.2822V28.6663C15.3453 29.5346 14.8699 30.3344 14.1068 30.7509Z" fill="#E7ECED"/>
        <path d="M20.2439 0.177831C9.47626 -0.00613137 0.597513 8.57387 0.41355 19.3415C0.30906 25.4469 3.03022 30.9341 7.3629 34.5832C7.64621 34.3359 7.95011 34.1093 8.28787 33.9253L14.1062 30.7516C14.8693 30.3351 15.3446 29.5352 15.3446 28.6655V26.2813C15.3446 26.2813 13.6367 24.2386 12.9855 21.4004C12.4454 21.0509 12.0833 20.4468 12.0833 19.7588V17.1494C12.0833 16.5755 12.3387 16.0626 12.7353 15.7035V11.9315C12.7353 11.9315 11.9604 6.06168 19.9098 6.06168C27.8592 6.06168 27.0844 11.9315 27.0844 11.9315V15.7035C27.4817 16.0626 27.7363 16.5755 27.7363 17.1494V19.7588C27.7363 20.6359 27.1476 21.3739 26.3485 21.6204C25.9033 23.0046 25.2609 24.324 24.4118 25.5234C24.1976 25.8258 23.9975 26.0819 23.8223 26.2813V28.7258C23.8223 29.6258 24.3308 30.4492 25.1358 30.8509L31.3663 33.9658C31.7401 34.1527 32.0778 34.3889 32.3891 34.6516C36.5908 31.1475 39.3053 25.9082 39.4061 20.0082C39.5916 9.24055 31.0123 0.361794 20.2439 0.177831Z" fill="#434555"/>
    </g>
</svg>
